<?xml version="1.0" standalone="no"?><!DOCTYPE svg PUBLIC "-//W3C//DTD SVG 1.1//EN" "http://www.w3.org/Graphics/SVG/1.1/DTD/svg11.dtd"><svg t="1762011785956" class="icon" viewBox="0 0 1024 1024" version="1.1" xmlns="http://www.w3.org/2000/svg" p-id="24784" xmlns:xlink="http://www.w3.org/1999/xlink" width="200" height="200"><path d="M798.72 789.864c-3.224 1.84-6.472 3.624-9.76 5.344L672 859.36 648.944 872 576 912v-104q-92 8-192 8C207.272 816 64 688.728 64 512s143.272-320 320-320h256c176.728 0 320 143.272 320 320a319.992 319.992 0 0 1-136.872 262.416c-7.88 5.504-16.264 10.344-24.408 15.448zM440 420v120a36 36 0 1 0 72 0v-120a36 36 0 1 0-72 0z m224 120a36 36 0 1 0 72 0v-120a36 36 0 1 0-72 0v120z" fill="#3b82f6" p-id="24785"></path></svg>