<?xml version="1.0" standalone="no"?><!DOCTYPE svg PUBLIC "-//W3C//DTD SVG 1.1//EN" "http://www.w3.org/Graphics/SVG/1.1/DTD/svg11.dtd"><svg t="1759823160280" class="icon" viewBox="0 0 1024 1024" version="1.1" xmlns="http://www.w3.org/2000/svg" p-id="35635" id="mx_n_1759823160282" xmlns:xlink="http://www.w3.org/1999/xlink" width="200" height="200"><path d="M781.51 744.1q-59.58-48.5-119.17 1.38-49.88 60.97 0 120.56L782.9 987.97q59.58 48.5 117.78 0 51.27-62.35 0-121.93L781.51 744.1zM638.79 0h-464.2Q95.61 6.93 88.68 85.91q6.93 77.6 85.91 84.53h471.13q109.46 16.62 120.55 128.86-11.09 116.4-127.48 127.48H259.12q-155.2 15.24-170.44 170.44h559.81q261.89-31.87 286.83-297.92Q908.99 26.33 638.79 0zM88.68 597.22v342.25q6.93 77.6 84.53 84.53 77.59-6.93 84.52-84.53V597.22H88.68z" fill="#3b82f6" p-id="35636"></path></svg>